<?xml version="1.0" standalone="no"?>
<!DOCTYPE svg PUBLIC "-//W3C//DTD SVG 20010904//EN"
 "http://www.w3.org/TR/2001/REC-SVG-20010904/DTD/svg10.dtd">
<svg version="1.0" xmlns="http://www.w3.org/2000/svg"
 width="512.000000pt" height="512.000000pt" viewBox="0 0 512.000000 512.000000"
 preserveAspectRatio="xMidYMid meet">
<metadata>
Created by potrace 1.14, written by Peter Selinger 2001-2017
</metadata>
<g transform="translate(0.000000,512.000000) scale(0.100000,-0.100000)"
fill="#000000" stroke="none">
<path d="M5079 3476 c-4 -4 -88 -12 -162 -15 -10 -1 -15 -5 -12 -11 3 -5 -1
-10 -9 -10 -9 0 -16 4 -16 8 0 5 -13 7 -30 4 -60 -9 -22 -29 43 -23 9 1 17 -3
17 -9 0 -6 -17 -10 -42 -9 -24 1 -51 -1 -60 -5 -13 -6 -18 -4 -18 8 0 9 -6 16
-12 16 -10 0 -10 2 -1 8 8 5 -2 8 -25 8 -36 1 -37 1 -9 -9 28 -11 35 -31 16
-42 -6 -4 -8 -13 -5 -21 5 -14 -9 -18 -46 -15 -10 1 -18 -2 -18 -8 0 -6 -7 -8
-15 -5 -8 4 -21 1 -29 -5 -7 -6 -16 -7 -20 -3 -4 4 -14 -2 -22 -12 -10 -14
-33 -22 -81 -28 -42 -5 -78 -16 -95 -28 -15 -11 -36 -20 -47 -20 -11 0 -22 -4
-26 -10 -3 -5 -13 -6 -22 -3 -13 5 -15 2 -10 -11 5 -14 3 -17 -8 -12 -9 3 -20
-3 -27 -14 -7 -11 -20 -20 -29 -20 -9 0 -29 -11 -45 -25 -24 -21 -26 -25 -10
-25 15 0 16 -3 6 -15 -9 -11 -10 -18 -1 -29 9 -11 6 -22 -11 -50 -13 -19 -30
-38 -39 -41 -20 -7 -65 -45 -54 -45 5 0 4 -5 -3 -12 -16 -16 -15 -28 1 -28 7
0 18 -9 24 -20 11 -16 10 -21 -6 -30 -11 -5 -36 -10 -55 -10 -27 0 -36 -4 -36
-16 0 -11 -6 -15 -20 -11 -11 3 -18 1 -14 -4 3 -5 -1 -9 -10 -9 -8 0 -17 6
-19 13 -4 9 -6 9 -6 -1 -1 -7 -6 -10 -11 -7 -6 3 -13 0 -16 -8 -3 -10 -22 -15
-57 -16 -29 0 -53 -5 -55 -11 -2 -5 -12 -10 -23 -10 -27 0 -24 -20 4 -20 22
-1 22 -1 -3 -14 -33 -17 -129 -40 -137 -32 -4 3 1 6 10 6 10 0 17 5 17 11 0 6
-8 8 -17 5 -10 -3 -36 -8 -58 -12 -22 -4 -51 -11 -65 -16 -14 -6 -43 -12 -65
-14 -22 -2 -53 -6 -70 -8 -16 -3 -37 -5 -45 -6 -8 -1 -4 -6 10 -11 18 -6 14
-7 -15 -2 -22 3 -67 5 -100 3 -33 -2 -67 -2 -75 -2 -78 8 -204 23 -240 29 -25
5 -61 6 -80 3 -19 -3 -50 -2 -69 3 -43 11 -203 15 -228 6 -15 -7 -16 -8 -1 -8
9 -1 19 -7 21 -13 4 -9 8 -10 14 -3 4 6 14 10 21 9 6 -1 21 -2 32 -3 11 0 20
-5 20 -11 0 -6 -61 -10 -152 -10 -279 0 -366 -4 -380 -17 -6 -7 -19 -13 -27
-13 -14 0 -14 1 -1 10 8 5 10 10 4 10 -5 0 -15 -5 -22 -12 -9 -9 -12 -9 -12 0
0 7 -6 12 -12 11 -7 -1 -24 2 -38 8 -43 19 -65 26 -74 24 -9 -2 -99 23 -149
42 -22 8 -31 7 -37 -3 -7 -11 -14 -12 -35 -2 -14 7 -35 12 -45 12 -11 0 -20 5
-20 10 0 6 -9 10 -20 10 -22 0 -27 -15 -7 -23 6 -3 -18 -6 -54 -6 -49 -1 -70
3 -80 15 -9 11 -25 15 -51 12 -37 -3 -51 5 -25 15 6 3 1 6 -13 7 -14 1 -44 4
-68 5 -23 2 -40 0 -37 -5 3 -4 -4 -6 -15 -3 -11 3 -20 1 -20 -4 0 -5 -18 -7
-40 -5 -22 2 -40 7 -40 11 0 3 -20 5 -46 3 -33 -3 -50 1 -65 13 -13 13 -19 14
-19 5 0 -9 -4 -9 -13 -2 -20 16 -67 12 -67 -7 0 -13 -2 -13 -9 -2 -6 8 -29 13
-70 13 -49 0 -61 3 -57 14 7 19 -8 18 -24 -1 -10 -12 -16 -13 -26 -4 -11 9
-18 8 -29 -1 -13 -10 -15 -9 -15 10 0 22 -41 64 -50 50 -3 -4 -29 -9 -58 -12
-45 -4 -52 -3 -52 12 0 10 -7 21 -16 24 -12 4 -15 2 -10 -9 7 -18 -10 -21 -17
-2 -4 9 -8 9 -15 -2 -7 -10 -11 -10 -14 -1 -3 10 -9 10 -25 2 -16 -9 -23 -9
-32 2 -6 7 -8 16 -4 19 3 4 -1 7 -11 7 -9 0 -14 -5 -11 -10 3 -6 2 -10 -4 -10
-5 0 -13 5 -16 10 -3 6 -14 10 -23 10 -14 0 -14 -2 -3 -9 7 -5 10 -14 7 -20
-12 -18 -26 -12 -27 12 -1 19 -3 17 -15 -10 -15 -35 -38 -45 -32 -15 2 9 -5
26 -15 37 -15 16 -21 17 -37 7 -27 -17 -40 -15 -40 6 0 18 -7 20 -75 25 -45 2
-68 18 -59 40 3 8 1 17 -3 20 -14 9 -31 -6 -34 -32 -3 -19 -11 -25 -37 -27
-23 -3 -31 0 -26 8 4 7 3 8 -5 4 -9 -6 -11 -195 -11 -784 1 -676 3 -774 16
-758 8 11 14 16 15 10 0 -5 2 -21 4 -36 2 -16 -1 -28 -6 -28 -5 0 -9 5 -9 10
0 6 -4 10 -10 10 -5 0 -10 -12 -10 -26 0 -22 2 -25 15 -14 12 10 15 9 15 -5 0
-15 2 -16 17 -4 15 13 16 11 11 -13 -5 -28 6 -39 15 -15 3 6 6 0 6 -15 1 -21
-3 -25 -18 -21 -10 3 -22 0 -26 -7 -5 -8 -10 -8 -21 1 -12 10 -14 -78 -14
-620 l0 -631 2317 2 2318 3 2 115 c1 68 -2 119 -9 127 -5 7 -25 15 -44 19 -48
9 -50 21 -6 29 20 4 62 16 92 27 30 11 69 23 85 27 17 4 29 13 27 20 -3 15 15
73 36 118 11 23 25 33 48 37 18 4 44 16 58 27 14 11 30 17 36 14 5 -3 10 -44
10 -91 0 -73 -2 -84 -17 -84 -17 -1 -17 -1 0 -11 10 -6 17 -20 16 -32 0 -12
-1 -95 0 -184 1 -142 3 -163 17 -163 14 0 15 27 10 277 -4 177 -10 281 -17
290 -8 9 -8 17 1 28 6 8 9 23 5 34 -3 10 -1 22 5 26 6 3 10 23 9 43 -1 37 8
116 16 140 3 6 17 12 32 12 72 0 73 1 73 119 l0 108 -31 -5 c-20 -3 -34 0 -40
9 -7 12 -9 11 -9 -1 0 -21 -36 -50 -60 -50 -12 0 -23 -7 -26 -15 -4 -8 -14
-15 -23 -15 -11 -1 -9 -5 8 -14 17 -9 20 -15 11 -21 -7 -4 -15 -3 -19 3 -13
21 -81 19 -81 -3 0 -8 -4 -15 -10 -15 -5 0 -10 -22 -10 -49 0 -28 -5 -53 -10
-56 -6 -4 -31 -7 -55 -8 -25 -1 -45 -5 -45 -8 0 -3 -17 -6 -37 -7 -20 -1 -39
-5 -42 -10 -11 -16 -51 -21 -51 -6 0 8 -7 14 -15 14 -8 0 -15 -7 -15 -16 0
-31 -35 -10 -38 24 -4 37 -16 41 -33 10 -10 -18 -13 -19 -20 -6 -7 12 -19 15
-49 11 -25 -4 -40 -2 -40 5 0 6 -14 10 -30 10 -17 -1 -33 2 -36 5 -4 4 -15 2
-25 -4 -16 -8 -19 -6 -20 18 0 15 -3 22 -6 15 -2 -6 -9 -10 -14 -6 -5 3 -8 2
-7 -3 4 -17 -14 -53 -28 -53 -17 0 -18 -12 -2 -28 9 -9 9 -12 0 -12 -7 0 -15
7 -18 15 -5 11 -10 12 -24 3 -10 -7 -17 -16 -14 -20 3 -4 -1 -5 -9 -2 -8 3
-18 0 -22 -6 -6 -9 -9 -9 -15 1 -7 10 -11 10 -24 0 -8 -7 -24 -10 -36 -6 -15
5 -20 2 -20 -12 -1 -17 -1 -17 -14 -1 -7 10 -16 15 -19 11 -10 -9 -8 10 2 25
5 9 17 11 34 6 17 -4 27 -2 27 5 0 6 -14 14 -31 18 -22 4 -27 8 -17 14 22 15
38 10 65 -18 14 -16 28 -23 30 -17 2 6 10 20 18 30 11 15 16 16 26 7 19 -19
48 19 41 54 -5 23 -7 24 -10 8 -2 -11 -8 -24 -14 -30 -6 -7 -7 -4 -3 6 5 12
-1 15 -27 15 -18 0 -41 4 -50 8 -13 6 -18 4 -18 -8 0 -20 -16 -21 -24 -1 -3 8
-15 15 -27 15 -30 0 -18 24 14 28 18 2 27 10 29 25 2 12 9 21 15 20 8 -2 11 8
8 26 -3 25 0 29 16 26 10 -2 24 -7 31 -11 6 -4 8 -3 5 3 -4 6 -1 13 7 16 8 3
17 -2 21 -11 6 -15 8 -14 16 6 4 12 15 22 24 22 8 0 15 4 15 10 0 5 -6 7 -14
4 -9 -4 -15 5 -19 28 -6 40 0 47 45 53 33 4 36 2 42 -26 4 -20 10 -28 18 -23
9 6 9 9 0 12 -7 2 -12 11 -12 20 0 11 3 13 8 6 4 -6 15 -13 24 -17 12 -4 15
-2 11 9 -3 9 1 14 14 14 10 0 29 7 41 16 12 8 25 13 30 11 4 -3 30 -1 57 3 63
10 77 0 62 -40 -6 -17 -15 -30 -19 -30 -4 0 -5 -7 -1 -16 5 -13 7 -13 14 -2 7
11 11 10 20 -2 8 -12 9 -9 5 13 -4 15 -2 27 3 27 18 0 9 52 -10 57 -11 3 -19
9 -19 14 0 12 2 12 38 -6 17 -9 57 -18 89 -21 83 -7 103 -12 103 -29 0 -8 5
-15 10 -15 6 0 10 5 10 11 0 6 6 9 14 6 8 -3 16 2 19 15 4 14 10 17 19 12 7
-5 36 -10 63 -11 82 -3 86 -4 79 -25 -6 -21 4 -24 20 -4 6 8 21 17 33 21 18 5
22 3 17 -9 -7 -17 11 -22 21 -6 9 14 18 13 41 -6 19 -15 19 -15 -3 -11 -24 5
-40 -18 -21 -29 7 -4 14 -2 16 4 2 7 10 12 18 12 10 0 14 14 14 55 0 59 -5 65
-26 38 -13 -17 -14 -17 -20 3 -4 14 -14 21 -29 21 -21 0 -22 -1 -9 -14 18 -18
18 -22 -2 -19 -8 1 -19 8 -24 15 -5 9 -10 10 -14 3 -3 -6 -2 -13 4 -17 12 -7
14 -25 3 -25 -13 0 -35 54 -23 58 18 6 11 22 -9 22 -11 0 -22 4 -25 9 -3 4
-18 7 -33 5 -15 -1 -31 2 -34 8 -4 5 -16 7 -28 3 -16 -5 -20 -12 -15 -27 6
-20 6 -20 -14 0 -16 16 -31 20 -67 18 -35 -3 -45 0 -41 9 3 8 -2 16 -10 19
-24 9 -31 7 -14 -4 12 -8 10 -10 -10 -10 -20 0 -22 -2 -10 -10 11 -7 5 -9 -22
-7 -21 1 -33 6 -28 11 11 11 -13 36 -34 36 -13 0 -14 -5 -6 -26 9 -21 8 -25
-4 -21 -8 3 -17 1 -19 -6 -3 -7 -3 9 0 35 5 44 3 48 -21 54 -15 3 -30 4 -33 0
-3 -3 -12 -1 -19 5 -9 7 -14 4 -19 -12 -6 -18 -12 -20 -41 -16 -19 3 -34 2
-34 -2 0 -5 -11 -11 -25 -13 -16 -3 -25 -1 -25 7 0 7 -13 15 -30 17 -27 4 -30
2 -30 -24 0 -39 -20 -35 -21 5 -1 18 -3 24 -6 14 -3 -12 -13 -17 -26 -16 -12
1 -30 -1 -39 -6 -10 -4 -25 -4 -34 -1 -9 4 -22 2 -28 -3 -6 -5 -15 -11 -21
-13 -5 -1 -9 -9 -9 -16 2 -18 -4 -15 -32 13 -28 28 -40 31 -47 13 -4 -9 -8
-10 -14 -2 -4 6 -18 16 -31 23 -12 7 -20 16 -17 22 4 5 13 5 26 -1 14 -8 19
-7 19 2 1 19 59 73 68 63 4 -4 1 -10 -5 -12 -7 -3 -13 -12 -13 -21 0 -14 2
-14 9 -3 5 7 14 10 20 7 14 -9 14 6 0 37 -7 16 -17 23 -29 20 -10 -3 -21 0
-24 6 -5 7 4 11 24 11 31 0 60 19 60 38 0 10 31 23 60 27 8 1 23 6 34 10 10 5
21 4 25 -3 8 -14 61 -3 68 15 4 10 9 11 19 2 10 -8 14 -8 14 0 0 7 8 8 27 0
23 -8 30 -7 41 8 14 20 31 24 49 11 7 -6 17 -1 27 14 9 12 16 16 16 9 0 -10 3
-11 14 -2 7 6 27 11 42 10 16 -2 39 1 52 5 14 5 22 3 22 -4 0 -6 8 -5 23 4 29
19 66 22 101 7 16 -6 35 -10 43 -7 7 3 13 0 13 -7 0 -8 4 -7 11 3 8 11 12 12
16 3 6 -15 43 -18 43 -3 0 5 7 7 15 4 8 -4 15 -1 15 5 0 6 5 11 10 11 6 0 10
-7 10 -15 0 -19 16 -19 24 0 4 10 14 13 36 9 20 -5 30 -3 30 6 0 8 4 9 13 3
19 -15 55 -13 61 4 4 8 13 13 21 9 13 -5 15 104 15 924 0 895 -1 930 -18 930
-10 0 -21 -2 -23 -4z m-4763 -590 c9 -9 10 -17 4 -21 -14 -8 -30 3 -30 21 0
18 8 18 26 0z m3865 -9 c-13 -13 -26 -3 -16 12 3 6 11 8 17 5 6 -4 6 -10 -1
-17z m-4125 -37 c8 0 14 -4 14 -10 0 -13 -16 -13 -42 1 -17 9 -18 13 -7 20 8
5 15 4 17 -1 2 -6 10 -10 18 -10z m659 -10 c3 -5 2 -10 -4 -10 -5 0 -13 5 -16
10 -3 6 -2 10 4 10 5 0 13 -4 16 -10z m2053 -169 c9 -6 60 -14 112 -20 l95
-10 -110 5 c-129 5 -173 13 -153 25 17 11 34 11 56 0z m392 -32 c-30 -8 -166
-11 -158 -3 3 3 36 7 74 10 37 3 70 6 72 9 2 2 11 1 20 -3 14 -5 12 -7 -8 -13z
m159 17 c-12 -10 -60 -16 -54 -6 3 5 18 10 32 10 15 0 24 -2 22 -4z m-86 -13
c-7 -2 -21 -2 -30 0 -10 3 -4 5 12 5 17 0 24 -2 18 -5z m1107 -1379 c0 -2 -9
-4 -21 -4 -11 0 -18 4 -14 10 5 8 35 3 35 -6z m530 6 c0 -5 -2 -10 -4 -10 -3
0 -8 5 -11 10 -3 6 -1 10 4 10 6 0 11 -4 11 -10z m-394 -58 c-4 -3 -12 0 -19
7 -9 9 -9 14 3 21 11 7 16 5 18 -6 2 -9 1 -18 -2 -22z m470 28 c18 0 18 -19
-1 -26 -8 -3 -21 1 -30 9 -20 20 -19 31 1 23 9 -3 22 -6 30 -6z m-516 -20 c0
-4 -7 -11 -16 -14 -8 -3 -12 -2 -9 4 3 6 1 10 -5 10 -6 0 -9 4 -5 10 6 10 35
2 35 -10z m161 11 c0 8 4 5 8 -6 5 -11 7 -21 6 -23 -5 -6 -45 22 -45 32 0 4 7
3 15 -4 12 -10 15 -10 16 1z m-1024 -127 c-9 -9 -28 6 -21 18 4 6 10 6 17 -1
6 -6 8 -13 4 -17z m386 -27 c9 -25 1 -111 -11 -115 -19 -6 -15 -43 5 -40 10 2
19 -4 21 -14 3 -14 -3 -18 -27 -18 -22 0 -29 4 -25 14 4 9 -7 15 -36 20 -23 3
-38 11 -35 16 3 6 2 10 -4 10 -6 0 -8 7 -5 15 4 8 1 15 -5 15 -6 0 -11 4 -11
8 0 5 7 9 15 9 8 0 15 -6 15 -13 0 -7 9 -18 19 -23 16 -9 20 -6 25 23 4 21 14
36 25 39 14 3 18 12 16 36 -3 31 8 42 18 18z m-121 -31 c5 4 8 -1 6 -10 -5
-27 -23 -24 -25 4 -1 14 0 19 3 12 3 -6 10 -9 16 -6z m208 -6 c0 -17 -2 -19
-14 -8 -14 13 -12 28 5 28 5 0 9 -9 9 -20z m877 -102 c3 -34 -10 -36 -31 -6
-21 29 -20 33 7 33 17 0 22 -6 24 -27z m-1202 -39 c6 -19 0 -38 -9 -28 -10 12
-16 49 -7 49 5 0 13 -9 16 -21z m1172 -5 c-3 -4 0 -13 8 -21 17 -17 19 -39 5
-48 -6 -3 -10 5 -10 19 0 14 -5 28 -10 31 -10 6 -5 25 7 25 4 0 4 -3 0 -6z
m-1157 -49 c0 -8 -4 -15 -10 -15 -5 0 -10 7 -10 15 0 8 5 15 10 15 6 0 10 -7
10 -15z m628 -14 c4 -11 0 -12 -14 -6 -11 4 -27 7 -36 7 -10 0 -18 4 -18 9 0
16 63 6 68 -10z m152 -1 c0 -5 -4 -10 -10 -10 -5 0 -10 5 -10 10 0 6 5 10 10
10 6 0 10 -4 10 -10z m454 -16 c3 -8 2 -12 -4 -9 -6 3 -10 10 -10 16 0 14 7
11 14 -7z m-618 -5 c3 -6 17 -9 30 -6 13 2 24 0 24 -4 0 -15 -50 -10 -66 6 -9
8 -11 15 -5 15 5 0 13 -5 17 -11z m134 1 c0 -5 -2 -10 -4 -10 -3 0 -8 5 -11
10 -3 6 -1 10 4 10 6 0 11 -4 11 -10z m-700 -43 c0 -5 -7 -4 -15 3 -8 7 -15
20 -15 29 1 13 3 13 15 -3 8 -11 15 -24 15 -29z m170 33 c0 -5 -4 -10 -10 -10
-5 0 -10 5 -10 10 0 6 5 10 10 10 6 0 10 -4 10 -10z m950 1 c0 -6 -4 -13 -10
-16 -5 -3 -10 1 -10 9 0 9 5 16 10 16 6 0 10 -4 10 -9z m-370 -11 c0 -5 -7
-10 -16 -10 -8 0 -12 5 -9 10 3 6 10 10 16 10 5 0 9 -4 9 -10z m-460 -36 c0
-8 -4 -12 -10 -9 -5 3 -10 10 -10 16 0 5 5 9 10 9 6 0 10 -7 10 -16z m340 -18
c0 -38 -15 -49 -28 -21 -14 30 -10 42 13 42 9 0 15 -9 15 -21z m80 15 c0 -15
-35 -19 -48 -4 -11 11 -7 13 18 13 16 0 30 -4 30 -9z m-204 -27 c-11 -8 -27
-14 -35 -14 -9 0 -3 8 14 19 34 21 50 17 21 -5z m64 12 c0 -11 -19 -15 -25 -6
-3 5 1 10 9 10 9 0 16 -2 16 -4z m-120 -16 c0 -5 -4 -10 -10 -10 -5 0 -10 5
-10 10 0 6 5 10 10 10 6 0 10 -4 10 -10z m260 -34 c0 -35 -15 -40 -29 -10 -15
33 -14 34 9 34 15 0 20 -7 20 -24z m160 15 c0 -21 -13 -41 -26 -41 -17 0 -17
5 -4 31 11 20 30 26 30 10z m249 -41 c-9 -6 -6 -10 13 -15 29 -7 43 -41 27
-61 -6 -7 -34 -20 -62 -29 -29 -9 -59 -20 -68 -25 -10 -5 -21 -4 -27 2 -8 8
-9 4 -5 -12 4 -16 3 -21 -5 -16 -7 4 -12 15 -13 24 0 12 -3 11 -9 -5 -11 -27
-28 -30 -26 -5 1 23 22 37 92 63 72 27 91 44 74 64 -10 12 -10 18 1 31 9 12
14 13 17 4 3 -7 -2 -16 -9 -20z m71 -30 c0 -5 -2 -10 -4 -10 -3 0 -8 5 -11 10
-3 6 -1 10 4 10 6 0 11 -4 11 -10z m-580 -55 c0 -8 -2 -15 -4 -15 -2 0 -6 7
-10 15 -3 8 -1 15 4 15 6 0 10 -7 10 -15z m300 -55 c0 -11 -48 -34 -65 -31 -5
0 -1 -6 9 -14 11 -8 28 -15 38 -15 11 0 18 -7 18 -20 0 -11 -5 -20 -11 -20 -5
0 -7 -5 -3 -12 5 -8 2 -9 -10 -5 -13 5 -15 3 -7 -11 13 -25 -2 -46 -28 -39
-13 3 -19 1 -15 -5 4 -6 1 -9 -7 -6 -19 6 -23 54 -9 102 9 31 9 40 -1 47 -9 5
-2 12 22 22 41 18 69 21 69 7z m-168 -33 c4 -6 6 -18 3 -25 -3 -8 -5 -20 -5
-28 0 -8 -9 -14 -22 -13 -21 0 -21 1 -4 8 15 6 10 9 -23 19 -46 14 -46 14 -28
43 9 16 19 19 42 14 16 -3 33 -11 37 -18z m158 -7 c0 -5 -2 -10 -4 -10 -3 0
-8 5 -11 10 -3 6 -1 10 4 10 6 0 11 -4 11 -10z m92 -30 c-1 -14 -7 -27 -12
-28 -6 -2 -7 -8 -4 -13 3 -6 3 -17 0 -25 -5 -12 -8 -12 -19 -3 -17 16 -19 49
-4 49 8 0 7 4 -2 9 -12 8 -13 12 -1 26 20 24 46 14 42 -15z m-215 -52 c-3 -7
-5 -2 -5 12 0 14 2 19 5 13 2 -7 2 -19 0 -25z m-40 -20 c-3 -8 -6 -5 -6 6 -1
11 2 17 5 13 3 -3 4 -12 1 -19z m-7 -28 c0 -5 -5 -10 -11 -10 -5 0 -7 5 -4 10
3 6 8 10 11 10 2 0 4 -4 4 -10z m-6 -187 c3 -40 2 -73 -3 -73 -4 0 -9 35 -10
77 -2 95 5 93 13 -4z"/>
<path d="M4723 3405 c-9 -24 1 -27 15 -5 8 13 8 20 2 20 -6 0 -13 -7 -17 -15z"/>
<path d="M635 2870 c3 -5 8 -10 11 -10 2 0 4 5 4 10 0 6 -5 10 -11 10 -5 0 -7
-4 -4 -10z"/>
<path d="M888 2813 c7 -3 16 -2 19 1 4 3 -2 6 -13 5 -11 0 -14 -3 -6 -6z"/>
<path d="M4570 1330 c0 -6 7 -10 15 -10 8 0 15 2 15 4 0 2 -7 6 -15 10 -8 3
-15 1 -15 -4z"/>
<path d="M4485 1150 c-3 -5 -1 -10 4 -10 6 0 11 5 11 10 0 6 -2 10 -4 10 -3 0
-8 -4 -11 -10z"/>
<path d="M4570 1142 c0 -22 27 -42 47 -36 49 16 49 16 25 25 -13 5 -21 13 -18
17 3 5 -8 9 -24 8 -18 -1 -30 -6 -30 -14z"/>
<path d="M4680 1155 c-9 -35 -5 -52 15 -61 17 -8 29 -8 46 2 l24 13 -23 1
c-19 0 -22 4 -17 23 6 20 5 21 -8 5 -19 -24 -25 -23 -30 5 -2 12 -5 18 -7 12z"/>
<path d="M4242 1100 c0 -14 2 -19 5 -12 2 6 2 18 0 25 -3 6 -5 1 -5 -13z"/>
<path d="M4437 1113 c-4 -3 -7 -13 -7 -22 1 -13 3 -13 11 2 11 19 8 33 -4 20z"/>
<path d="M5000 1090 c0 -5 5 -10 11 -10 5 0 7 5 4 10 -3 6 -8 10 -11 10 -2 0
-4 -4 -4 -10z"/>
<path d="M4300 1080 c0 -5 5 -10 11 -10 6 0 8 -7 4 -17 -4 -13 -3 -15 5 -7 6
6 8 18 4 27 -7 18 -24 23 -24 7z"/>
<path d="M4535 1051 c-3 -5 0 -21 7 -36 11 -26 12 -26 20 -6 12 34 -10 69 -27
42z"/>
<path d="M4117 989 c3 -11 0 -19 -6 -19 -6 0 -11 -5 -11 -10 0 -6 11 -3 25 6
30 19 32 30 6 37 -14 3 -17 0 -14 -14z"/>
<path d="M4172 968 c1 -16 8 -28 14 -28 7 0 15 -8 17 -17 4 -17 5 -17 6 0 0 9
8 17 17 17 11 0 14 -6 10 -17 -5 -15 -4 -15 9 1 17 22 21 71 5 61 -5 -3 -10
-1 -10 4 0 6 -15 10 -35 8 -31 -2 -35 -5 -33 -29z"/>
<path d="M4271 973 c-1 -12 4 -25 9 -28 12 -7 12 2 0 30 -8 19 -9 19 -9 -2z"/>
<path d="M4290 980 c0 -5 7 -10 16 -10 8 0 12 5 9 10 -3 6 -10 10 -16 10 -5 0
-9 -4 -9 -10z"/>
<path d="M4090 925 c0 -8 5 -15 10 -15 6 0 10 7 10 15 0 8 -4 15 -10 15 -5 0
-10 -7 -10 -15z"/>
<path d="M4710 910 c0 -5 8 -13 18 -18 12 -7 22 -4 36 9 19 19 19 19 -17 19
-20 0 -37 -4 -37 -10z"/>
<path d="M4715 870 c27 -12 43 -12 25 0 -8 5 -22 9 -30 9 -10 0 -8 -3 5 -9z"/>
<path d="M5030 316 c0 -2 9 -6 20 -9 11 -3 20 -1 20 4 0 5 -9 9 -20 9 -11 0
-20 -2 -20 -4z"/>
<path d="M5080 306 c0 -2 7 -7 16 -10 8 -3 12 -2 9 4 -6 10 -25 14 -25 6z"/>
<path d="M5100 244 c0 -8 5 -12 10 -9 6 3 10 10 10 16 0 5 -4 9 -10 9 -5 0
-10 -7 -10 -16z"/>
<path d="M4708 234 c-4 -3 -4 -12 -1 -20 3 -8 0 -14 -6 -14 -6 0 -11 7 -11 16
0 9 -5 14 -12 12 -8 -3 -11 -21 -9 -54 6 -70 5 -74 -3 -126 -7 -47 -7 -48 18
-48 20 0 26 5 26 23 1 21 1 21 14 4 18 -23 25 -5 16 38 -3 17 -5 41 -4 55 7
77 6 92 -8 106 -8 8 -17 12 -20 8z m-1 -92 c4 -45 -6 -90 -15 -75 -9 14 -2
127 6 118 4 -3 8 -23 9 -43z"/>
<path d="M4760 186 c0 -22 6 -36 16 -40 13 -5 14 -9 4 -21 -9 -11 -9 -18 3
-30 9 -8 18 -15 21 -15 3 0 6 29 6 64 0 49 -4 65 -16 70 -28 11 -34 6 -34 -28z"/>
<path d="M5100 210 c0 -5 5 -10 11 -10 5 0 7 5 4 10 -3 6 -8 10 -11 10 -2 0
-4 -4 -4 -10z"/>
<path d="M4830 165 c0 -43 1 -44 20 -33 21 14 27 28 10 28 -5 0 -10 11 -10 25
0 14 -4 25 -10 25 -5 0 -10 -20 -10 -45z"/>
<path d="M4770 35 c0 -28 15 -34 24 -9 10 25 7 34 -9 34 -9 0 -15 -9 -15 -25z"/>
</g>
</svg>
